G75*
%MOIN*%
%OFA0B0*%
%FSLAX24Y24*%
%IPPOS*%
%LPD*%
%AMOC8*
5,1,8,0,0,1.08239X$1,22.5*
%
%ADD10OC8,0.0710*%
%ADD11C,0.1340*%
%ADD12OC8,0.0600*%
%ADD13R,0.0840X0.0840*%
%ADD14C,0.0840*%
%ADD15OC8,0.0930*%
%ADD16C,0.1740*%
%ADD17C,0.1740*%
%ADD18C,0.0780*%
%ADD19R,0.0780X0.0780*%
%ADD20R,0.0595X0.0595*%
%ADD21C,0.0595*%
%ADD22C,0.0600*%
%ADD23R,0.0674X0.0674*%
%ADD24C,0.0674*%
%ADD25C,0.0674*%
%ADD26R,0.0907X0.0907*%
%ADD27C,0.0907*%
%ADD28C,0.0680*%
%ADD29C,0.0600*%
%ADD30C,0.1080*%
%ADD31C,0.1080*%
%ADD32R,0.1261X0.1261*%
%ADD33C,0.1261*%
%ADD34R,0.0556X0.0556*%
%ADD35C,0.0556*%
%ADD36C,0.1582*%
%ADD37C,0.0907*%
%ADD38R,0.0476X0.0476*%
D10*
X006737Y014843D03*
X008737Y014843D03*
X019147Y027193D03*
X019147Y029193D03*
X031987Y029343D03*
X031987Y027343D03*
X043397Y027123D03*
X043397Y029123D03*
X056007Y029073D03*
X056007Y027073D03*
X067447Y029723D03*
X069447Y029723D03*
X069337Y022703D03*
X067337Y022703D03*
X067287Y014983D03*
X069287Y014983D03*
D11*
X070987Y005343D03*
X070987Y035343D03*
X005987Y035343D03*
X005987Y005343D03*
D12*
X002817Y007213D03*
X002817Y008213D03*
X012747Y010433D03*
X016237Y010443D03*
X022817Y007241D03*
X030692Y007301D03*
X030737Y009693D03*
X008048Y017591D03*
X008243Y024251D03*
X070317Y024113D03*
X071317Y024113D03*
D13*
X073664Y023048D03*
X073487Y018093D03*
X073359Y012895D03*
X049237Y002843D03*
X041287Y002743D03*
X037821Y032593D03*
X025987Y032593D03*
X049561Y032593D03*
X061435Y032593D03*
D14*
X060435Y032593D03*
X059435Y032593D03*
X058435Y032593D03*
X066467Y031083D03*
X070467Y031083D03*
X073664Y026048D03*
X073664Y025048D03*
X073664Y024048D03*
X073487Y021093D03*
X073487Y020093D03*
X073487Y019093D03*
X073359Y015895D03*
X073359Y014895D03*
X073359Y013895D03*
X070495Y009171D03*
X066495Y009171D03*
X055347Y010833D03*
X051347Y010833D03*
X051237Y002843D03*
X052237Y002843D03*
X053237Y002843D03*
X054237Y002843D03*
X050237Y002843D03*
X046287Y002743D03*
X045287Y002743D03*
X044287Y002743D03*
X043287Y002743D03*
X042287Y002743D03*
X021307Y005363D03*
X019907Y005363D03*
X019907Y009363D03*
X021307Y009363D03*
X010717Y010243D03*
X010737Y011343D03*
X008607Y009133D03*
X006717Y010243D03*
X006737Y011343D03*
X004607Y009133D03*
X014348Y015087D03*
X014348Y019087D03*
X022987Y032593D03*
X023987Y032593D03*
X024987Y032593D03*
X034821Y032593D03*
X035821Y032593D03*
X036821Y032593D03*
X046561Y032593D03*
X047561Y032593D03*
X048561Y032593D03*
X060757Y024133D03*
X064757Y024133D03*
D15*
X003027Y001933D03*
X022887Y010773D03*
X013927Y013763D03*
X024317Y005393D03*
X047837Y007123D03*
X049927Y005063D03*
X051087Y005063D03*
X052197Y005073D03*
X053257Y005063D03*
X054327Y005063D03*
X060987Y008433D03*
X059447Y010743D03*
X074197Y001773D03*
X021307Y031693D03*
X019817Y031903D03*
X020867Y033073D03*
X009967Y038973D03*
X003127Y038543D03*
X073787Y038443D03*
D16*
X006487Y030753D02*
X006487Y029093D01*
X004124Y029093D02*
X004124Y030753D01*
D17*
X005306Y027243D03*
D18*
X019737Y022593D03*
X020737Y022593D03*
X021737Y022593D03*
X022737Y022593D03*
X023737Y022593D03*
X024737Y022593D03*
X025737Y022593D03*
X026737Y022593D03*
X027737Y022593D03*
X028737Y022593D03*
X029737Y022593D03*
X030737Y022593D03*
X031737Y022593D03*
X032737Y022593D03*
X033737Y022593D03*
X034737Y022593D03*
X035737Y022593D03*
X036737Y022593D03*
X037737Y022593D03*
X038737Y022593D03*
X039737Y022593D03*
X040737Y022593D03*
X041737Y022593D03*
X042737Y022593D03*
X043737Y022593D03*
X044737Y022593D03*
X045737Y022593D03*
X046737Y022593D03*
X047737Y022593D03*
X048737Y022593D03*
X049737Y022593D03*
X050737Y022593D03*
X051737Y022593D03*
X052737Y022593D03*
X053737Y022593D03*
X054737Y022593D03*
X055737Y022593D03*
X056737Y022593D03*
X057737Y022593D03*
X057737Y013593D03*
X056737Y013593D03*
X055737Y013593D03*
X054737Y013593D03*
X053737Y013593D03*
X052737Y013593D03*
X051737Y013593D03*
X050737Y013593D03*
X049737Y013593D03*
X048737Y013593D03*
X047737Y013593D03*
X046737Y013593D03*
X045737Y013593D03*
X044737Y013593D03*
X043737Y013593D03*
X042737Y013593D03*
X041737Y013593D03*
X040737Y013593D03*
X039737Y013593D03*
X038737Y013593D03*
X037737Y013593D03*
X036737Y013593D03*
X035737Y013593D03*
X034737Y013593D03*
X033737Y013593D03*
X032737Y013593D03*
X031737Y013593D03*
X030737Y013593D03*
X029737Y013593D03*
X028737Y013593D03*
X027737Y013593D03*
X026737Y013593D03*
X025737Y013593D03*
X024737Y013593D03*
X023737Y013593D03*
X022737Y013593D03*
X021737Y013593D03*
X020737Y013593D03*
X019737Y013593D03*
X019737Y014593D03*
X019737Y015593D03*
X019737Y016593D03*
D19*
X058737Y013593D03*
X058737Y022593D03*
D20*
X060668Y036593D03*
X049168Y036593D03*
X037418Y036593D03*
X025668Y036593D03*
X013918Y036593D03*
D21*
X013130Y036593D03*
X012343Y036593D03*
X011556Y036593D03*
X023306Y036593D03*
X024093Y036593D03*
X024880Y036593D03*
X035056Y036593D03*
X035843Y036593D03*
X036630Y036593D03*
X046806Y036593D03*
X047593Y036593D03*
X048380Y036593D03*
X058306Y036593D03*
X059093Y036593D03*
X059880Y036593D03*
D22*
X059506Y029958D02*
X059506Y029438D01*
X060506Y029438D02*
X060506Y029958D01*
X061506Y029958D02*
X061506Y029438D01*
X062506Y029438D02*
X062506Y029958D01*
X063506Y029958D02*
X063506Y029438D01*
X066627Y028253D02*
X067147Y028253D01*
X067147Y027253D02*
X066627Y027253D01*
X066627Y026253D02*
X067147Y026253D01*
X069627Y026253D02*
X070147Y026253D01*
X070147Y027253D02*
X069627Y027253D01*
X069627Y028253D02*
X070147Y028253D01*
X063506Y026958D02*
X063506Y026438D01*
X062506Y026438D02*
X062506Y026958D01*
X061506Y026958D02*
X061506Y026438D01*
X060506Y026438D02*
X060506Y026958D01*
X059506Y026958D02*
X059506Y026438D01*
X058506Y026438D02*
X058506Y026958D01*
X057506Y026958D02*
X057506Y026438D01*
X052847Y026412D02*
X052847Y026932D01*
X051847Y026932D02*
X051847Y026412D01*
X050847Y026412D02*
X050847Y026932D01*
X049847Y026932D02*
X049847Y026412D01*
X048847Y026412D02*
X048847Y026932D01*
X047847Y026932D02*
X047847Y026412D01*
X046847Y026412D02*
X046847Y026932D01*
X045847Y026932D02*
X045847Y026412D01*
X044847Y026412D02*
X044847Y026932D01*
X044847Y029412D02*
X044847Y029932D01*
X045847Y029932D02*
X045847Y029412D01*
X046847Y029412D02*
X046847Y029932D01*
X047847Y029932D02*
X047847Y029412D01*
X048847Y029412D02*
X048847Y029932D01*
X049847Y029932D02*
X049847Y029412D01*
X050847Y029412D02*
X050847Y029932D01*
X051847Y029932D02*
X051847Y029412D01*
X052847Y029412D02*
X052847Y029932D01*
X057506Y029958D02*
X057506Y029438D01*
X058506Y029438D02*
X058506Y029958D01*
X066636Y021298D02*
X067156Y021298D01*
X067156Y020298D02*
X066636Y020298D01*
X066636Y019298D02*
X067156Y019298D01*
X067156Y018298D02*
X066636Y018298D01*
X069636Y018298D02*
X070156Y018298D01*
X070156Y019298D02*
X069636Y019298D01*
X069636Y020298D02*
X070156Y020298D01*
X070156Y021298D02*
X069636Y021298D01*
X069577Y013648D02*
X070097Y013648D01*
X070097Y012648D02*
X069577Y012648D01*
X069577Y011648D02*
X070097Y011648D01*
X070097Y010648D02*
X069577Y010648D01*
X067097Y010648D02*
X066577Y010648D01*
X066577Y011648D02*
X067097Y011648D01*
X067097Y012648D02*
X066577Y012648D01*
X066577Y013648D02*
X067097Y013648D01*
X039518Y026430D02*
X039518Y026950D01*
X038518Y026950D02*
X038518Y026430D01*
X037518Y026430D02*
X037518Y026950D01*
X036518Y026950D02*
X036518Y026430D01*
X035518Y026430D02*
X035518Y026950D01*
X034518Y026950D02*
X034518Y026430D01*
X033518Y026430D02*
X033518Y026950D01*
X033518Y029430D02*
X033518Y029950D01*
X034518Y029950D02*
X034518Y029430D01*
X035518Y029430D02*
X035518Y029950D01*
X036518Y029950D02*
X036518Y029430D01*
X037518Y029430D02*
X037518Y029950D01*
X038518Y029950D02*
X038518Y029430D01*
X039518Y029430D02*
X039518Y029950D01*
X028662Y029924D02*
X028662Y029404D01*
X027662Y029404D02*
X027662Y029924D01*
X026662Y029924D02*
X026662Y029404D01*
X025662Y029404D02*
X025662Y029924D01*
X024662Y029924D02*
X024662Y029404D01*
X023662Y029404D02*
X023662Y029924D01*
X022662Y029924D02*
X022662Y029404D01*
X021662Y029404D02*
X021662Y029924D01*
X020662Y029924D02*
X020662Y029404D01*
X020662Y026924D02*
X020662Y026404D01*
X021662Y026404D02*
X021662Y026924D01*
X022662Y026924D02*
X022662Y026404D01*
X023662Y026404D02*
X023662Y026924D01*
X024662Y026924D02*
X024662Y026404D01*
X025662Y026404D02*
X025662Y026924D01*
X026662Y026924D02*
X026662Y026404D01*
X027662Y026404D02*
X027662Y026924D01*
X028662Y026924D02*
X028662Y026404D01*
D23*
X057113Y002940D03*
X060107Y002940D03*
X063134Y002920D03*
X066178Y002920D03*
X073737Y028093D03*
X073737Y031093D03*
D24*
X073737Y032093D03*
X073737Y029093D03*
X067178Y002920D03*
X064134Y002920D03*
X061107Y002940D03*
X058113Y002940D03*
D25*
X073089Y008708D02*
X073683Y008708D01*
X073683Y009708D02*
X073089Y009708D01*
X073089Y010708D02*
X073683Y010708D01*
X038857Y003110D02*
X038857Y002516D01*
X037857Y002516D02*
X037857Y003110D01*
X036857Y003110D02*
X036857Y002516D01*
X034737Y002546D02*
X034737Y003140D01*
X033737Y003140D02*
X033737Y002546D01*
X032737Y002546D02*
X032737Y003140D01*
X030487Y003140D02*
X030487Y002546D01*
X029487Y002546D02*
X029487Y003140D01*
X028487Y003140D02*
X028487Y002546D01*
X026237Y002546D02*
X026237Y003140D01*
X025237Y003140D02*
X025237Y002546D01*
X024237Y002546D02*
X024237Y003140D01*
X021937Y003090D02*
X021937Y002496D01*
X020937Y002496D02*
X020937Y003090D01*
X019937Y003090D02*
X019937Y002496D01*
D26*
X057957Y006475D03*
D27*
X058957Y006475D03*
X059957Y006475D03*
X060957Y006475D03*
X061957Y006475D03*
X062957Y006475D03*
X063957Y006475D03*
X064957Y006475D03*
X065957Y006475D03*
D28*
X015547Y009053D02*
X015547Y009653D01*
X014547Y009653D02*
X014547Y009053D01*
X013547Y009053D02*
X013547Y009653D01*
X008019Y020335D02*
X007419Y020335D01*
X007419Y021335D02*
X008019Y021335D01*
X008019Y022335D02*
X007419Y022335D01*
X011247Y027853D02*
X011847Y027853D01*
X011847Y028853D02*
X011247Y028853D01*
X011247Y029853D02*
X011847Y029853D01*
D29*
X008243Y025051D03*
X008048Y018391D03*
X012747Y011233D03*
X016237Y011243D03*
X022817Y008041D03*
X030692Y008101D03*
X030737Y010493D03*
D30*
X016757Y012603D03*
X010757Y012603D03*
X014415Y021083D03*
X014415Y026083D03*
D31*
X012077Y023553D02*
X011077Y023553D01*
X011077Y014693D02*
X012077Y014693D01*
D32*
X003987Y013652D03*
X003987Y019402D03*
X003987Y025152D03*
D33*
X003987Y023593D03*
X003987Y022034D03*
X003987Y017843D03*
X003987Y016284D03*
X003987Y012093D03*
X003987Y010534D03*
D34*
X006987Y016093D03*
X047157Y011213D03*
X071647Y028223D03*
D35*
X071647Y027473D03*
X071647Y026723D03*
X046407Y011213D03*
X045657Y011213D03*
X008487Y016093D03*
X007737Y016093D03*
D36*
X012547Y006853D03*
X016547Y006853D03*
D37*
X016707Y035610D02*
X016707Y036437D01*
X018677Y036437D02*
X018677Y035610D01*
X028507Y035680D02*
X028507Y036507D01*
X030477Y036507D02*
X030477Y035680D01*
X040507Y035680D02*
X040507Y036507D01*
X042477Y036507D02*
X042477Y035680D01*
X052257Y035680D02*
X052257Y036507D01*
X054227Y036507D02*
X054227Y035680D01*
X064007Y035680D02*
X064007Y036507D01*
X065977Y036507D02*
X065977Y035680D01*
D38*
X064397Y033493D03*
X061907Y033493D03*
X065167Y030813D03*
X065217Y028573D03*
X060517Y028133D03*
X061747Y025333D03*
X059777Y024733D03*
X056787Y023763D03*
X055417Y025413D03*
X054587Y025853D03*
X052757Y025243D03*
X049417Y024173D03*
X046557Y024673D03*
X041527Y023643D03*
X040857Y025243D03*
X036037Y027733D03*
X032777Y030623D03*
X030677Y028813D03*
X029497Y028823D03*
X027177Y028823D03*
X025687Y027943D03*
X024747Y024833D03*
X030687Y024853D03*
X035487Y024173D03*
X033237Y021153D03*
X030737Y020613D03*
X030237Y018823D03*
X026697Y019483D03*
X027737Y021143D03*
X022757Y020023D03*
X017987Y021753D03*
X017237Y020613D03*
X013317Y020133D03*
X018547Y026253D03*
X020007Y030563D03*
X017967Y032373D03*
X017217Y031923D03*
X018547Y033553D03*
X014287Y032433D03*
X013607Y031933D03*
X023187Y031193D03*
X025777Y031153D03*
X026667Y031573D03*
X027657Y032603D03*
X029487Y032163D03*
X042267Y031573D03*
X043377Y031443D03*
X046307Y028373D03*
X048867Y028373D03*
X049847Y028133D03*
X055977Y031433D03*
X054587Y031913D03*
X051867Y032593D03*
X068397Y032733D03*
X072657Y022063D03*
X065187Y018533D03*
X063947Y018883D03*
X064537Y020243D03*
X064267Y021393D03*
X060137Y019443D03*
X058997Y020833D03*
X054727Y017643D03*
X051077Y018793D03*
X048757Y018823D03*
X046677Y017203D03*
X047717Y016103D03*
X045767Y014833D03*
X045257Y014303D03*
X040237Y014563D03*
X038777Y009143D03*
X040227Y005713D03*
X049557Y007753D03*
X050237Y010393D03*
X061107Y011453D03*
X061957Y015623D03*
X062927Y016683D03*
X070747Y014863D03*
X071637Y007693D03*
X043727Y021303D03*
X040737Y020243D03*
X022487Y011783D03*
X021057Y011783D03*
M02*
