%
M48
M72
T01C0.0236
T02C0.0276
T03C0.0315
T04C0.0320
T05C0.0394
T06C0.0400
T07C0.0433
T08C0.0520
T09C0.0551
T10C0.0630
T11C0.0787
T12C0.1102
T13C0.1260
%
T01
X21057Y11783
X22487Y11783
X30237Y18823
X30737Y20613
X33237Y21153
X27737Y21143
X26697Y19483
X22757Y20023
X17987Y21753
X17237Y20613
X13317Y20133
X18547Y26253
X24747Y24833
X25687Y27943
X27177Y28823
X29497Y28823
X30677Y28813
X32777Y30623
X29487Y32163
X27657Y32603
X26667Y31573
X25777Y31153
X23187Y31193
X20007Y30563
X17967Y32373
X17217Y31923
X18547Y33553
X14287Y32433
X13607Y31933
X30687Y24853
X35487Y24173
X40857Y25243
X41527Y23643
X43727Y21303
X40737Y20243
X46677Y17203
X47717Y16103
X45767Y14833
X45257Y14303
X40237Y14563
X48757Y18823
X51077Y18793
X54727Y17643
X60137Y19443
X58997Y20833
X63947Y18883
X65187Y18533
X64537Y20243
X64267Y21393
X59777Y24733
X61747Y25333
X60517Y28133
X65217Y28573
X65167Y30813
X68397Y32733
X64397Y33493
X61907Y33493
X55977Y31433
X54587Y31913
X51867Y32593
X49847Y28133
X48867Y28373
X46307Y28373
X43377Y31443
X42267Y31573
X36037Y27733
X46557Y24673
X49417Y24173
X52757Y25243
X54587Y25853
X55417Y25413
X56787Y23763
X62927Y16683
X61957Y15623
X61107Y11453
X70747Y14863
X71637Y7693
X50237Y10393
X49557Y7753
X40227Y5713
X38777Y9143
X72657Y22063
T02
X71647Y26723
X71647Y27473
X71647Y28223
X47157Y11213
X46407Y11213
X45657Y11213
X8487Y16093
X7737Y16093
X6987Y16093
T03
X11556Y36593
X12343Y36593
X13130Y36593
X13918Y36593
X23306Y36593
X24093Y36593
X24880Y36593
X25668Y36593
X35056Y36593
X35843Y36593
X36630Y36593
X37418Y36593
X46806Y36593
X47593Y36593
X48380Y36593
X49168Y36593
X58306Y36593
X59093Y36593
X59880Y36593
X60668Y36593
T04
X66467Y31083
X67447Y29723
X69447Y29723
X70467Y31083
X69887Y28253
X69887Y27253
X69887Y26253
X66887Y26253
X66887Y27253
X66887Y28253
X63506Y29698
X62506Y29698
X61506Y29698
X60506Y29698
X59506Y29698
X58506Y29698
X57506Y29698
X56007Y29073
X52847Y29672
X51847Y29672
X50847Y29672
X49847Y29672
X48847Y29672
X47847Y29672
X46847Y29672
X45847Y29672
X44847Y29672
X43397Y29123
X43397Y27123
X44847Y26672
X45847Y26672
X46847Y26672
X47847Y26672
X48847Y26672
X49847Y26672
X50847Y26672
X51847Y26672
X52847Y26672
X56007Y27073
X57506Y26698
X58506Y26698
X59506Y26698
X60506Y26698
X61506Y26698
X62506Y26698
X63506Y26698
X64757Y24133
X67337Y22703
X66896Y21298
X66896Y20298
X66896Y19298
X66896Y18298
X69896Y18298
X69896Y19298
X69896Y20298
X69896Y21298
X69337Y22703
X70317Y24113
X71317Y24113
X60757Y24133
X67287Y14983
X69287Y14983
X69837Y13648
X69837Y12648
X69837Y11648
X69837Y10648
X70495Y9171
X66837Y10648
X66837Y11648
X66837Y12648
X66837Y13648
X66495Y9171
X55347Y10833
X51347Y10833
X30737Y10493
X30737Y9693
X30692Y8101
X30692Y7301
X22817Y7241
X22817Y8041
X21307Y9363
X19907Y9363
X16237Y10443
X16237Y11243
X12747Y11233
X12747Y10433
X10717Y10243
X10737Y11343
X8607Y9133
X6717Y10243
X6737Y11343
X4607Y9133
X2817Y8213
X2817Y7213
X6737Y14843
X8737Y14843
X8048Y17591
X8048Y18391
X14348Y19087
X14348Y15087
X8243Y24251
X8243Y25051
X19147Y27193
X20662Y26664
X21662Y26664
X22662Y26664
X23662Y26664
X24662Y26664
X25662Y26664
X26662Y26664
X27662Y26664
X28662Y26664
X31987Y27343
X33518Y26690
X34518Y26690
X35518Y26690
X36518Y26690
X37518Y26690
X38518Y26690
X39518Y26690
X39518Y29690
X38518Y29690
X37518Y29690
X36518Y29690
X35518Y29690
X34518Y29690
X33518Y29690
X31987Y29343
X28662Y29664
X27662Y29664
X26662Y29664
X25662Y29664
X24662Y29664
X23662Y29664
X22662Y29664
X21662Y29664
X20662Y29664
X19147Y29193
X19907Y5363
X21307Y5363
T05
X20937Y2793
X21937Y2793
X19937Y2793
X24237Y2843
X25237Y2843
X26237Y2843
X28487Y2843
X29487Y2843
X30487Y2843
X32737Y2843
X33737Y2843
X34737Y2843
X36857Y2813
X37857Y2813
X38857Y2813
X41287Y2743
X42287Y2743
X43287Y2743
X44287Y2743
X45287Y2743
X46287Y2743
X49237Y2843
X50237Y2843
X51237Y2843
X52237Y2843
X53237Y2843
X54237Y2843
X57113Y2940
X58113Y2940
X60107Y2940
X61107Y2940
X63134Y2920
X64134Y2920
X66178Y2920
X67178Y2920
X73386Y8708
X73386Y9708
X73386Y10708
X73359Y12895
X73359Y13895
X73359Y14895
X73359Y15895
X73487Y18093
X73487Y19093
X73487Y20093
X73487Y21093
X73664Y23048
X73664Y24048
X73664Y25048
X73664Y26048
X73737Y28093
X73737Y29093
X73737Y31093
X73737Y32093
X61435Y32593
X60435Y32593
X59435Y32593
X58435Y32593
X49561Y32593
X48561Y32593
X47561Y32593
X46561Y32593
X37821Y32593
X36821Y32593
X35821Y32593
X34821Y32593
X25987Y32593
X24987Y32593
X23987Y32593
X22987Y32593
T06
X11547Y29853
X11547Y28853
X11547Y27853
X7719Y22335
X7719Y21335
X7719Y20335
X13547Y9353
X14547Y9353
X15547Y9353
T07
X19737Y13593
X20737Y13593
X21737Y13593
X22737Y13593
X23737Y13593
X24737Y13593
X25737Y13593
X26737Y13593
X27737Y13593
X28737Y13593
X29737Y13593
X30737Y13593
X31737Y13593
X32737Y13593
X33737Y13593
X34737Y13593
X35737Y13593
X36737Y13593
X37737Y13593
X38737Y13593
X39737Y13593
X40737Y13593
X41737Y13593
X42737Y13593
X43737Y13593
X44737Y13593
X45737Y13593
X46737Y13593
X47737Y13593
X48737Y13593
X49737Y13593
X50737Y13593
X51737Y13593
X52737Y13593
X53737Y13593
X54737Y13593
X55737Y13593
X56737Y13593
X57737Y13593
X58737Y13593
X58737Y22593
X57737Y22593
X56737Y22593
X55737Y22593
X54737Y22593
X53737Y22593
X52737Y22593
X51737Y22593
X50737Y22593
X49737Y22593
X48737Y22593
X47737Y22593
X46737Y22593
X45737Y22593
X44737Y22593
X43737Y22593
X42737Y22593
X41737Y22593
X40737Y22593
X39737Y22593
X38737Y22593
X37737Y22593
X36737Y22593
X35737Y22593
X34737Y22593
X33737Y22593
X32737Y22593
X31737Y22593
X30737Y22593
X29737Y22593
X28737Y22593
X27737Y22593
X26737Y22593
X25737Y22593
X24737Y22593
X23737Y22593
X22737Y22593
X21737Y22593
X20737Y22593
X19737Y22593
X19737Y16593
X19737Y15593
X19737Y14593
T08
X3027Y1933
X22887Y10773
X13927Y13763
X11577Y14693
X11577Y23553
X21307Y31693
X19817Y31903
X20867Y33073
X9967Y38973
X3127Y38543
X59447Y10743
X60987Y8433
X54327Y5063
X53257Y5063
X52197Y5073
X51087Y5063
X49927Y5063
X47837Y7123
X24317Y5393
X74197Y1773
X73787Y38443
T09
X65977Y36093
X64007Y36093
X54227Y36093
X52257Y36093
X42477Y36093
X40507Y36093
X30477Y36093
X28507Y36093
X18677Y36023
X16707Y36023
X14415Y26083
X14415Y21083
X57957Y6475
X58957Y6475
X59957Y6475
X60957Y6475
X61957Y6475
X62957Y6475
X63957Y6475
X64957Y6475
X65957Y6475
T10
X16757Y12603
X10757Y12603
T11
X3987Y12093
X3987Y10534
X3987Y13652
X3987Y16284
X3987Y17843
X3987Y19402
X3987Y22034
X3987Y23593
X3987Y25152
T12
X12547Y6853
X16547Y6853
T13
X5987Y5343
X5306Y27243
X6487Y29093
X4124Y29093
X5987Y35343
X70987Y35343
X70987Y5343
M30
